HIERARCHY
ROOT Hips
{
	OFFSET 0.000000 89.005402 0.000000
	CHANNELS 6 Xposition Yposition Zposition Xrotation Yrotation Zrotation
	JOINT Spine
	{
		OFFSET 0.116900 10.681000 0.373400
		CHANNELS 3 Xrotation Yrotation Zrotation
		JOINT Spine1
		{
			OFFSET 0.000000 13.840401 0.053500
			CHANNELS 3 Xrotation Yrotation Zrotation
			JOINT Spine2
			{
				OFFSET 0.000000 14.712700 -0.366200
				CHANNELS 3 Xrotation Yrotation Zrotation
				JOINT Neck
				{
					OFFSET 0.000000 35.415497 -3.314200
					CHANNELS 3 Xrotation Yrotation Zrotation
					JOINT Head
					{
						OFFSET 0.000000 16.899200 1.218300
						CHANNELS 3 Xrotation Yrotation Zrotation
						JOINT HeadTop_End
						{
							OFFSET 0.000000 22.206207 2.192500
							CHANNELS 3 Xrotation Yrotation Zrotation
							End Site
							{
								OFFSET 0.000000 22.314178 0.000000
							}
						}
					}
				}
				JOINT LeftShoulder
				{
					OFFSET 12.896400 26.716293 -4.548400
					CHANNELS 3 Xrotation Yrotation Zrotation
					JOINT LeftArm
					{
						OFFSET 19.027000 -4.857010 -1.718400
						CHANNELS 3 Xrotation Yrotation Zrotation
						JOINT LeftForeArm
						{
							OFFSET 24.179897 0.000000 0.000000
							CHANNELS 3 Xrotation Yrotation Zrotation
							JOINT LeftHand
							{
								OFFSET 27.156403 0.000000 0.000000
								CHANNELS 3 Xrotation Yrotation Zrotation
								JOINT LeftHandIndex1
								{
									OFFSET 16.441200 0.000000 0.000000
									CHANNELS 3 Xrotation Yrotation Zrotation
									JOINT LeftHandIndex2
									{
										OFFSET 4.821899 0.000000 0.000000
										CHANNELS 3 Xrotation Yrotation Zrotation
										JOINT LeftHandIndex3
										{
											OFFSET 6.386497 0.000000 0.000000
											CHANNELS 3 Xrotation Yrotation Zrotation
											JOINT LeftHandIndex4
											{
												OFFSET 5.188988 0.000000 0.000000
												CHANNELS 3 Xrotation Yrotation Zrotation
												End Site
												{
													OFFSET -0.178703 5.185913 0.000177
												}
											}
										}
									}
								}
								JOINT LeftHandThumb1
								{
									OFFSET 6.534897 -5.032593 5.900300
									CHANNELS 3 Xrotation Yrotation Zrotation
									JOINT LeftHandThumb2
									{
										OFFSET 3.818176 -2.204422 2.204423
										CHANNELS 3 Xrotation Yrotation Zrotation
										JOINT LeftHandThumb3
										{
											OFFSET 3.252098 -1.877594 1.877601
											CHANNELS 3 Xrotation Yrotation Zrotation
											JOINT LeftHandThumb4
											{
												OFFSET 5.251778 -3.032120 3.032117
												CHANNELS 3 Xrotation Yrotation Zrotation
												End Site
												{
													OFFSET 0.000023 6.780014 0.000000
												}
											}
										}
									}
								}
							}
						}
					}
				}
				JOINT RightShoulder
				{
					OFFSET -12.896300 26.716293 -4.548400
					CHANNELS 3 Xrotation Yrotation Zrotation
					JOINT RightArm
					{
						OFFSET -19.027000 -4.857010 -1.718400
						CHANNELS 3 Xrotation Yrotation Zrotation
						JOINT RightForeArm
						{
							OFFSET -24.179897 0.000000 0.000000
							CHANNELS 3 Xrotation Yrotation Zrotation
							JOINT RightHand
							{
								OFFSET -27.156403 0.000000 0.000000
								CHANNELS 3 Xrotation Yrotation Zrotation
								JOINT RightHandThumb1
								{
									OFFSET -6.591202 -4.852203 5.988100
									CHANNELS 3 Xrotation Yrotation Zrotation
									JOINT RightHandThumb2
									{
										OFFSET -3.818176 -2.204422 2.204423
										CHANNELS 3 Xrotation Yrotation Zrotation
										JOINT RightHandThumb3
										{
											OFFSET -3.252098 -1.877594 1.877601
											CHANNELS 3 Xrotation Yrotation Zrotation
											JOINT RightHandThumb4
											{
												OFFSET -5.251778 -3.032120 3.032117
												CHANNELS 3 Xrotation Yrotation Zrotation
												End Site
												{
													OFFSET -0.000023 6.780014 0.000000
												}
											}
										}
									}
								}
								JOINT RightHandIndex1
								{
									OFFSET -16.029404 0.000000 0.000000
									CHANNELS 3 Xrotation Yrotation Zrotation
									JOINT RightHandIndex2
									{
										OFFSET -5.213303 0.000000 0.000000
										CHANNELS 3 Xrotation Yrotation Zrotation
										JOINT RightHandIndex3
										{
											OFFSET -6.386528 0.000000 0.000000
											CHANNELS 3 Xrotation Yrotation Zrotation
											JOINT RightHandIndex4
											{
												OFFSET -5.189026 0.000000 0.000000
												CHANNELS 3 Xrotation Yrotation Zrotation
												End Site
												{
													OFFSET 0.236702 5.183624 0.001972
												}
											}
										}
									}
								}
							}
						}
					}
				}
			}
		}
	}
	JOINT LeftUpLeg
	{
		OFFSET 14.073000 -7.904099 -1.463000
		CHANNELS 3 Xrotation Yrotation Zrotation
		JOINT LeftLeg
		{
			OFFSET -0.109806 -34.073280 4.093200
			CHANNELS 3 Xrotation Yrotation Zrotation
			JOINT LeftFoot
			{
				OFFSET 0.109806 -29.899420 -6.319000
				CHANNELS 3 Xrotation Yrotation Zrotation
				JOINT LeftToeBase
				{
					OFFSET 1.551100 -14.988700 20.535801
					CHANNELS 3 Xrotation Yrotation Zrotation
					JOINT LeftToe_End
					{
						OFFSET 0.221200 0.570800 13.248301
						CHANNELS 3 Xrotation Yrotation Zrotation
						End Site
						{
							OFFSET 0.000000 13.262435 0.000000
						}
					}
				}
			}
		}
	}
	JOINT RightUpLeg
	{
		OFFSET -13.839300 -7.904099 -1.463000
		CHANNELS 3 Xrotation Yrotation Zrotation
		JOINT RightLeg
		{
			OFFSET 0.109694 -34.073219 4.093300
			CHANNELS 3 Xrotation Yrotation Zrotation
			JOINT RightFoot
			{
				OFFSET -0.109694 -29.899384 -6.319200
				CHANNELS 3 Xrotation Yrotation Zrotation
				JOINT RightToeBase
				{
					OFFSET -1.551100 -14.988700 20.535801
					CHANNELS 3 Xrotation Yrotation Zrotation
					JOINT RightToe_End
					{
						OFFSET -0.221200 0.570900 13.248299
						CHANNELS 3 Xrotation Yrotation Zrotation
						End Site
						{
							OFFSET 0.000000 13.262440 0.000000
						}
					}
				}
			}
		}
	}
}
MOTION
Frames: 9
Frame Time: 0.033333
-0.384552 71.819809 -0.075036 -5.398680 -46.211984 -0.238053 9.452219 7.171210 -1.616266 2.187715 0.989895 -0.915631 2.202829 0.982781 -0.894154 0.084642 13.220551 4.538699 8.921202 20.130586 -4.132586 0.000000 0.000000 -0.000000 1.117178 3.546350 -8.633310 -53.487068 4.935607 -51.503147 0.000048 -106.358114 0.000058 1.988700 -7.706148 -15.869386 0.255311 3.378223 -45.814334 5.654099 5.847751 -88.067469 2.162146 4.544818 -50.866372 0.000001 0.000002 0.000002 -6.141224 -11.690799 -6.761704 9.914094 42.595515 3.409888 -0.422808 8.108088 27.509091 -0.000001 -0.000003 0.000002 3.036126 13.027203 -5.371408 -48.713695 27.172827 83.457064 0.000066 105.988266 -0.000054 -8.345368 17.548098 8.775677 -7.341104 13.749655 7.412339 9.855739 -44.489107 -3.903290 -0.115793 -14.513080 -28.973867 0.000001 -0.000001 0.000002 -0.124378 -2.384789 45.108864 4.500581 -4.654543 88.071150 1.723228 -3.618379 50.920116 0.000002 -0.000002 -0.000001 -31.861436 6.395787 19.963999 59.337610 -8.188301 3.970976 -25.244772 -6.905775 -16.448615 -1.594037 0.000002 -0.000005 0.000000 0.000002 0.000000 -18.986278 -11.114492 -32.040896 59.475122 -5.224054 -6.737362 -30.568877 -9.909733 26.194090 -0.013006 0.000001 0.000002 0.000000 -0.000000 -0.000000 
-0.354985 70.354164 0.241529 -6.489359 -46.447151 -0.707181 9.731714 7.253038 -1.496948 3.371448 1.143551 -0.986761 3.380679 1.157799 -0.960257 -1.274435 13.373711 3.839564 8.829343 19.814259 -2.121752 -0.000000 -0.000001 0.000000 0.852417 5.012955 -8.108144 -50.207129 4.962331 -53.999373 0.000011 -107.815697 0.000001 1.839404 -7.677898 -13.138075 0.255313 3.378225 -45.814331 5.654096 5.847753 -88.067469 2.162145 4.544814 -50.866369 -0.000001 0.000001 -0.000005 -6.141223 -11.690799 -6.761699 9.914090 42.595508 3.409897 -0.422806 8.108085 27.509085 0.000001 -0.000001 0.000003 2.919909 12.323702 -5.691659 -49.737605 27.250845 84.879587 0.000059 106.515045 -0.000061 -7.346485 17.937639 8.264345 -7.341104 13.749657 7.412342 9.855735 -44.489110 -3.903294 -0.115791 -14.513071 -28.973864 0.000001 0.000001 -0.000000 -0.124377 -2.384788 45.108864 4.500581 -4.654543 88.071143 1.723230 -3.618382 50.920122 -0.000000 0.000000 -0.000002 -33.350782 5.071144 20.268404 64.444488 -7.718164 3.514955 -26.251730 -7.092655 -16.353462 -3.500013 0.000013 -0.000008 0.000000 -0.000000 0.000000 -20.589154 -11.619833 -34.175169 63.185684 -3.026337 -7.490705 -32.835434 -10.257631 25.705033 -1.427518 -0.000005 -0.000004 -0.000000 -0.000000 0.000000 
-0.109330 68.799683 1.642417 -7.731128 -47.543571 -1.102303 10.021418 7.464422 -1.371805 4.575402 1.538647 -1.293076 4.580203 1.573289 -1.250658 -2.791394 13.707885 3.155064 8.715805 19.938637 -0.030439 0.000001 -0.000000 0.000000 0.441009 7.301541 -7.980983 -44.888341 4.213240 -55.690842 0.000070 -110.237716 0.000063 1.996510 -7.930262 -8.599307 0.255313 3.378221 -45.814331 5.654095 5.847751 -88.067469 2.162144 4.544815 -50.866379 -0.000002 -0.000000 -0.000002 -6.141224 -11.690801 -6.761699 9.914092 42.595512 3.409894 -0.422808 8.108088 27.509092 -0.000003 0.000002 -0.000001 2.871656 12.007893 -5.749383 -51.064127 27.551557 86.165418 0.000157 107.216915 -0.000160 -6.085591 18.341001 7.368668 -7.341106 13.749653 7.412340 9.855737 -44.489107 -3.903298 -0.115792 -14.513078 -28.973867 -0.000000 -0.000000 -0.000001 -0.124379 -2.384790 45.108864 4.500581 -4.654545 88.071150 1.723227 -3.618381 50.920119 0.000001 0.000001 0.000002 -35.523571 4.118240 20.470449 72.020213 -7.620569 3.019838 -26.873000 -8.304830 -16.215257 -8.576092 -0.000008 -0.000002 -0.000000 -0.000000 0.000000 -22.052601 -11.600712 -37.313866 65.809877 0.053604 -8.974953 -34.208982 -10.709292 26.107293 -3.090407 -0.000032 0.000005 0.000000 0.000000 -0.000000 
0.382098 67.223824 4.262735 -8.967410 -49.751593 -1.792139 10.125123 7.842217 -1.088777 5.585341 2.152456 -1.795813 5.588732 2.205515 -1.732248 -3.962011 13.968531 3.470801 8.588040 20.646859 0.803219 -0.000001 -0.000000 -0.000001 0.057665 9.608318 -8.432748 -36.453232 2.991990 -54.977159 0.000038 -114.908780 0.000030 3.262034 -8.863400 -2.631763 0.255311 3.378222 -45.814334 5.654098 5.847752 -88.067469 2.162141 4.544813 -50.866369 0.000001 -0.000000 0.000006 -6.141224 -11.690800 -6.761702 9.914100 42.595512 3.409891 -0.422805 8.108085 27.509097 -0.000001 -0.000001 0.000001 2.859276 11.770394 -5.458519 -52.271916 28.320034 87.518233 0.000001 107.940655 -0.000013 -4.692378 18.763351 5.869651 -7.341104 13.749657 7.412336 9.855733 -44.489107 -3.903296 -0.115789 -14.513075 -28.973871 -0.000003 -0.000000 -0.000001 -0.124379 -2.384787 45.108864 4.500584 -4.654541 88.071150 1.723227 -3.618381 50.920122 0.000001 -0.000000 0.000003 -38.558474 1.739261 22.528021 81.634824 -8.020223 1.759609 -26.270289 -12.987651 -19.857687 -12.705653 -0.009559 0.756061 0.000000 0.000000 0.000001 -23.017609 -10.258380 -41.732172 66.820676 4.416166 -9.082896 -34.213924 -10.502916 26.913187 -3.015081 -0.000006 0.000005 0.000001 0.000000 -0.000000 
0.920921 66.144424 7.718322 -10.027509 -52.913943 -2.729828 9.920154 8.251368 -0.954654 6.228715 2.767506 -2.352296 6.239820 2.826140 -2.274205 -4.407380 14.039409 5.171346 8.784205 22.031173 -0.309274 0.000000 0.000000 0.000002 0.027015 10.325777 -9.390295 -25.476817 3.721772 -50.347104 0.000025 -122.199188 0.000028 5.414830 -11.102025 3.352444 0.255312 3.378224 -45.814331 5.654095 5.847755 -88.067469 2.162142 4.544818 -50.866376 0.000001 0.000001 -0.000001 -6.141223 -11.690800 -6.761698 9.914084 42.595512 3.409887 -0.422805 8.108089 27.509087 0.000003 0.000001 -0.000002 2.800125 11.129089 -4.990389 -52.999987 29.611633 89.471694 0.000139 108.420476 -0.000157 -3.734726 19.160813 3.582714 -7.341104 13.749656 7.412338 9.855736 -44.489107 -3.903296 -0.115789 -14.513078 -28.973864 0.000002 -0.000005 0.000000 -0.124377 -2.384788 45.108864 4.500582 -4.654543 88.071143 1.723227 -3.618379 50.920119 0.000002 -0.000000 0.000001 -41.517640 -1.887894 26.038611 89.020430 -10.622795 0.113316 -21.500006 -19.392522 -24.376578 -17.321688 -1.308850 8.603088 -0.000000 0.000002 0.000000 -23.437210 -7.924891 -46.286720 64.507325 6.548243 -8.952629 -30.768428 -7.424811 31.603883 -3.439971 -0.000029 -0.000001 0.000000 0.000001 0.000000 
1.392225 66.345276 11.598011 -10.947815 -56.571452 -3.988370 9.404407 8.444697 -1.124180 6.461943 3.090168 -2.744120 6.493839 3.135227 -2.668319 -3.888866 14.137469 7.782828 9.548050 24.246613 -3.149907 -0.000000 0.000000 0.000001 0.416020 8.544570 -10.409884 -15.137665 10.122223 -42.208561 0.000021 -130.410441 0.000014 6.283584 -15.898071 8.389898 0.255313 3.378223 -45.814327 5.654097 5.847753 -88.067469 2.162143 4.544819 -50.866376 -0.000001 -0.000002 -0.000001 -6.141221 -11.690800 -6.761698 9.914091 42.595512 3.409889 -0.422805 8.108083 27.509092 -0.000001 0.000005 -0.000002 2.627752 9.740536 -4.651165 -53.294897 31.460377 92.472142 0.000055 108.426897 -0.000055 -3.850908 19.504102 0.758394 -7.341104 13.749655 7.412337 9.855735 -44.489107 -3.903297 -0.115791 -14.513076 -28.973867 0.000001 0.000001 -0.000002 -0.124378 -2.384788 45.108864 4.500585 -4.654545 88.071150 1.723226 -3.618380 50.920116 -0.000001 0.000001 0.000001 -42.612802 -4.751994 30.034387 90.052370 -13.236598 -1.062299 -12.345674 -23.332900 -28.353087 -21.250329 -5.714247 16.963719 -0.000000 -0.000001 0.000000 -23.945084 -5.711954 -49.009022 60.116361 7.285740 -9.092637 -25.866654 -3.333026 32.787124 -5.772420 0.000011 0.000003 -0.000000 -0.000000 0.000000 
1.986534 67.904747 15.721214 -11.877334 -60.495177 -6.061871 8.734376 8.280575 -1.555653 6.452850 2.922358 -2.837378 6.514906 2.939828 -2.783522 -2.590816 14.680165 10.321124 10.582293 27.541517 -6.861110 0.000001 -0.000000 -0.000001 0.965011 4.871118 -10.600875 -10.965003 23.866196 -33.363855 0.000017 -136.447249 0.000017 2.996062 -23.803523 9.702361 0.255311 3.378222 -45.814327 5.654095 5.847752 -88.067469 2.162143 4.544818 -50.866372 -0.000000 -0.000000 0.000001 -6.141224 -11.690805 -6.761703 9.914095 42.595505 3.409894 -0.422804 8.108090 27.509092 -0.000002 -0.000001 0.000001 2.322161 7.582826 -4.599074 -53.752527 34.035352 96.229729 0.000097 107.810677 -0.000110 -5.182033 19.885141 -1.783984 -7.341105 13.749656 7.412337 9.855732 -44.489103 -3.903297 -0.115790 -14.513081 -28.973861 -0.000001 -0.000002 0.000001 -0.124377 -2.384789 45.108864 4.500582 -4.654544 88.071143 1.723231 -3.618382 50.920122 0.000001 -0.000000 0.000001 -40.892636 -4.903190 34.139283 85.510266 -14.253516 -0.985937 -3.464393 -21.260137 -30.910311 -27.720879 -7.507057 16.375414 -0.000000 -0.000001 0.000000 -24.597220 -4.592651 -48.960787 53.992277 7.585294 -9.472795 -19.546217 0.655227 29.987051 -4.876249 0.000012 -0.000003 0.000000 0.000000 -0.000001 
2.670351 69.890884 19.672615 -12.898437 -64.971396 -9.025525 8.129542 7.873145 -2.207373 6.485414 2.267677 -2.672430 6.577733 2.253196 -2.655005 -3.321939 15.955575 10.317208 11.867332 31.987473 -7.734713 -0.000000 -0.000000 -0.000000 1.670495 0.876659 -8.759231 -19.057234 39.908146 -23.887060 -0.000001 -138.139032 0.000000 -6.803970 -30.313165 2.316197 0.255311 3.378221 -45.814331 5.654098 5.847751 -88.067469 2.162144 4.544818 -50.866369 -0.000001 0.000001 -0.000001 -6.141224 -11.690800 -6.761699 9.914102 42.595512 3.409890 -0.422805 8.108083 27.509089 -0.000000 0.000003 -0.000000 1.925409 4.958764 -4.699311 -55.018690 37.293437 99.712381 0.000001 106.575670 -0.000014 -7.252618 20.345426 -3.197584 -7.341105 13.749659 7.412339 9.855735 -44.489103 -3.903298 -0.115789 -14.513080 -28.973864 0.000000 -0.000001 -0.000001 -0.124378 -2.384788 45.108864 4.500580 -4.654546 88.071143 1.723227 -3.618378 50.920116 0.000000 -0.000003 -0.000003 -37.884969 -2.879345 38.439598 80.802620 -14.007548 -0.037893 -2.415232 -14.548506 -27.702931 -25.302338 -3.056901 7.748209 0.000000 -0.000000 -0.000000 -27.271841 -3.273638 -46.604413 49.446249 7.768575 -9.881314 -10.678745 5.013536 25.803796 -6.788827 -0.017005 1.167521 0.000000 -0.000002 0.000002 
3.550968 71.397736 23.537830 -14.566621 -69.618417 -13.000286 7.685099 7.358788 -2.776292 6.775743 1.281602 -2.280041 6.881086 1.242843 -2.307550 -3.742525 17.527025 10.597723 11.899046 37.349991 -9.218501 -0.000001 0.000000 -0.000000 3.063574 -1.170445 -3.075089 -40.406627 46.097176 -9.980166 0.000011 -134.516887 0.000014 -17.696556 -25.563340 -7.283043 0.255313 3.378222 -45.814327 5.654096 5.847752 -88.067469 2.162144 4.544817 -50.866376 0.000000 -0.000000 0.000001 -6.141224 -11.690800 -6.761703 9.914092 42.595508 3.409893 -0.422803 8.108087 27.509091 -0.000002 -0.000002 0.000002 1.574377 2.537201 -4.659127 -56.906974 40.757962 101.281542 0.000073 104.991735 -0.000064 -9.362678 20.718515 -3.032131 -7.341105 13.749652 7.412341 9.855736 -44.489100 -3.903298 -0.115791 -14.513080 -28.973864 0.000001 -0.000001 -0.000003 -0.124378 -2.384789 45.108864 4.500584 -4.654543 88.071150 1.723226 -3.618382 50.920122 0.000004 -0.000001 0.000001 -35.130719 -0.300016 42.466418 73.005249 -10.785788 1.043484 -1.468789 -10.892554 -22.793193 -21.569888 0.979515 -3.001757 -0.000000 0.000000 0.000000 -30.703404 -2.292487 -43.310568 46.423126 8.305163 -9.921665 -0.426078 7.301950 21.701700 -6.672482 -0.494014 6.225388 -0.000000 -0.000000 -0.000000 
